<?xml version="1.0" encoding="utf-8"?>
<!-- Generator: Adobe Illustrator 16.0.0, SVG Export Plug-In . SVG Version: 6.00 Build 0)  -->
<!DOCTYPE svg PUBLIC "-//W3C//DTD SVG 1.1//EN" "http://www.w3.org/Graphics/SVG/1.1/DTD/svg11.dtd">
<svg version="1.1"
	 id="Calque_1" text-rendering="geometricPrecision" shape-rendering="geometricPrecision" image-rendering="optimizeQuality"
	 xmlns="http://www.w3.org/2000/svg" xmlns:xlink="http://www.w3.org/1999/xlink" x="0px" y="0px" width="577.715px"
	 height="30.717px" viewBox="0 0 577.715 30.717" enable-background="new 0 0 577.715 30.717" xml:space="preserve">
<path stroke="#1F1A17" stroke-width="0.5518" d="M4.877,22.762H0v7.954h11.101h106.332h10.663h106.332h10.692h106.331h10.692
	h106.303h10.692h98.576V22.76h-4.872c-1.475,0-2.658-1.175-2.658-2.633V7.526c0-1.459,1.185-2.633,2.658-2.633h4.872V0H0v0.002
	v4.894h4.877c1.472,0,2.657,1.174,2.657,2.633V20.13C7.534,21.588,6.347,22.762,4.877,22.762z M550.333,7.526
	c-0.003-1.459,1.184-2.633,2.655-2.633h8.19c1.474,0,2.658,1.174,2.658,2.633v12.602c0,1.458-1.187,2.633-2.658,2.633h-8.19
	c-1.473,0-2.655-1.175-2.655-2.633V7.526z M530.447,7.526c0-1.459,1.187-2.633,2.657-2.633h8.224c1.475,0,2.657,1.174,2.657,2.633
	v12.602c0,1.458-1.185,2.633-2.657,2.633h-8.224c-1.472,0-2.657-1.175-2.657-2.633V7.526z M510.594,7.526
	c0-1.459,1.185-2.633,2.657-2.633h8.188c1.474,0,2.658,1.174,2.658,2.633v12.602c0,1.458-1.187,2.633-2.658,2.633h-8.188
	c-1.475,0-2.657-1.175-2.657-2.633V7.526z M490.706,7.526c0.002-1.459,1.187-2.633,2.657-2.633h8.226
	c1.473,0,2.655,1.174,2.655,2.633v12.602c0,1.458-1.185,2.633-2.655,2.633h-8.226c-1.473,0-2.657-1.175-2.657-2.633V7.526z
	 M470.855,7.526c0-1.459,1.185-2.633,2.658-2.633h8.188c1.476,0,2.658,1.174,2.658,2.633v12.602c0,1.458-1.185,2.633-2.658,2.633
	h-8.188c-1.475-0.001-2.658-1.175-2.658-2.633V7.526z M450.97,7.526c0-1.459,1.185-2.633,2.657-2.633h8.224
	c1.472,0,2.657,1.174,2.657,2.633v12.602c0,1.458-1.188,2.633-2.657,2.633h-8.224c-1.475,0-2.657-1.175-2.657-2.633V7.526z
	 M431.115,7.526c-0.001-1.459,1.186-2.633,2.658-2.633h8.222c1.475,0,2.657,1.174,2.657,2.633v12.602
	c0,1.458-1.185,2.633-2.657,2.633h-8.222c-1.474,0-2.658-1.175-2.658-2.633V7.526z M411.233,7.526c0-1.459,1.186-2.633,2.657-2.633
	h8.223c1.475,0,2.657,1.174,2.657,2.633v12.602c0,1.458-1.185,2.633-2.657,2.633h-8.223c-1.473,0-2.657-1.175-2.657-2.633V7.526z
	 M391.378,7.526c0-1.459,1.186-2.633,2.658-2.633h8.223c1.473,0,2.657,1.174,2.657,2.633v12.602c0,1.458-1.187,2.633-2.657,2.633
	h-8.223c-1.475,0-2.658-1.175-2.658-2.633V7.526z M371.495,7.526c-0.001-1.459,1.184-2.633,2.655-2.633h8.225
	c1.473,0,2.657,1.174,2.657,2.633v12.602c0,1.458-1.187,2.633-2.657,2.633h-8.225c-1.473,0-2.655-1.175-2.655-2.633V7.526z
	 M351.64,7.526c0-1.459,1.187-2.633,2.658-2.633h8.223c1.475,0,2.657,1.174,2.657,2.633v12.602c0,1.458-1.185,2.633-2.657,2.633
	h-8.223c-1.473-0.001-2.658-1.175-2.658-2.633V7.526z M331.756,7.526c0-1.459,1.185-2.633,2.657-2.633h8.224
	c1.472,0,2.657,1.174,2.657,2.633v12.602c0,1.458-1.188,2.633-2.657,2.633h-8.224c-1.475,0-2.657-1.175-2.657-2.633V7.526z
	 M311.903,7.526c0-1.459,1.186-2.633,2.658-2.633h8.224c1.473,0,2.655,1.174,2.655,2.633v12.602c0,1.458-1.185,2.633-2.655,2.633
	h-8.224c-1.474,0-2.658-1.175-2.658-2.633V7.526z M292.018,7.526c0-1.459,1.187-2.633,2.657-2.633h8.223
	c1.475,0,2.658,1.174,2.658,2.633v12.602c0,1.458-1.185,2.633-2.658,2.633h-8.223c-1.472,0-2.657-1.175-2.657-2.633V7.526z
	 M272.164,7.526c0-1.459,1.185-2.633,2.656-2.633h8.225c1.472,0,2.657,1.174,2.657,2.633v12.602c0,1.458-1.188,2.633-2.657,2.633
	h-8.225c-1.473,0-2.656-1.175-2.656-2.633V7.526z M252.28,7.526c0-1.459,1.187-2.633,2.657-2.633h8.225
	c1.473,0,2.655,1.174,2.655,2.633v12.602c0,1.458-1.185,2.633-2.655,2.633h-8.225c-1.472,0-2.657-1.175-2.657-2.633V7.526z
	 M232.426,7.526c0-1.459,1.185-2.633,2.658-2.633h8.223c1.472,0,2.658,1.174,2.658,2.633v12.602c0,1.458-1.188,2.633-2.658,2.633
	h-8.223c-1.475,0-2.658-1.175-2.658-2.633V7.526z M212.541,7.526c0-1.459,1.186-2.633,2.655-2.633h8.225
	c1.473,0,2.657,1.174,2.657,2.633v12.602c0,1.458-1.187,2.633-2.657,2.633h-8.225c-1.472,0-2.655-1.175-2.655-2.633V7.526z
	 M192.687,7.526c0.001-1.459,1.187-2.633,2.658-2.633h8.223c1.474,0,2.658,1.174,2.658,2.633v12.602
	c0,1.458-1.186,2.633-2.658,2.633h-8.223c-1.473,0-2.658-1.175-2.658-2.633V7.526z M172.803,7.526
	c-0.001-1.459,1.216-2.633,2.689-2.633h8.189c1.473,0,2.657,1.174,2.657,2.633v12.602c0,1.458-1.187,2.633-2.657,2.633h-8.189
	c-1.475,0-2.689-1.175-2.689-2.633V7.526z M152.949,7.526c0-1.459,1.185-2.633,2.656-2.633h8.225c1.472,0,2.656,1.174,2.656,2.633
	v12.602c0,1.458-1.186,2.633-2.656,2.633h-8.225c-1.473,0-2.656-1.175-2.656-2.633V7.526z M133.097,7.526
	c-0.001-1.459,1.184-2.633,2.657-2.633h8.189c1.475,0,2.658,1.174,2.658,2.633v12.602c0,1.458-1.185,2.633-2.658,2.633h-8.189
	c-1.475,0-2.657-1.175-2.657-2.633V7.526z M113.211,7.526c0-1.459,1.185-2.633,2.658-2.633h8.222c1.473,0,2.658,1.174,2.658,2.633
	v12.602c0,1.458-1.187,2.633-2.658,2.633h-8.222c-1.475,0-2.658-1.175-2.658-2.633V7.526z M93.357,7.526
	c0-1.459,1.188-2.633,2.657-2.633h8.192c1.472,0,2.656,1.174,2.656,2.633v12.602c0,1.458-1.186,2.633-2.656,2.633h-8.192
	c-1.472,0-2.657-1.175-2.657-2.633V7.526z M73.473,7.526c0-1.459,1.186-2.633,2.657-2.633h8.223c1.475,0,2.658,1.174,2.658,2.633
	v12.602c0,1.458-1.185,2.633-2.658,2.633H76.13c-1.473,0-2.657-1.175-2.657-2.633V7.526z M53.619,7.526
	c0-1.459,1.185-2.633,2.656-2.633h8.191c1.473,0,2.658,1.174,2.658,2.633v12.602c0,1.458-1.187,2.633-2.658,2.633h-8.191
	c-1.473,0-2.656-1.175-2.656-2.633V7.526z M33.736,7.526c0-1.459,1.186-2.633,2.657-2.633h8.224c1.473,0,2.655,1.174,2.655,2.633
	v12.602c0,1.458-1.185,2.633-2.655,2.633h-8.224c-1.473,0-2.657-1.175-2.657-2.633V7.526z M13.881,7.526
	c0-1.459,1.186-2.633,2.658-2.633h8.19c1.474,0,2.688,1.174,2.688,2.633v12.602c0,1.458-1.216,2.633-2.688,2.633h-8.19
	c-1.474,0-2.658-1.175-2.658-2.633V7.526z"/>
</svg>
